# This file uses centimeters as units for non-parametric coordinates.

mtllib Level_Star.mtl
g default
v 0.743656 -0.194878 0.495354
v 1.246456 -0.469922 0.498888
v 0.483868 0.898151 0.499989
v 0.725515 0.900713 0.498888
v 0.518392 1.788244 0.498888
v 1.521098 1.710713 0.498888
v 0.631969 1.916827 0.226515
v 1.953221 1.808094 0.226515
v 0.845766 -0.503281 0.220083
v 1.515302 -0.813964 0.226515
v 1.007044 0.808185 0.226515
v -0.001092 0.182910 0.500147
v 0.004454 0.903231 0.497778
v 0.003691 -0.057298 0.226515
v 1.515302 -0.813964 0.008135
v 0.845766 -0.503281 0.001703
v 0.631969 1.916827 0.008135
v 1.953221 1.808094 0.008135
v 1.007044 0.808185 0.008135
v 0.000000 2.661656 0.498888
v 0.000000 2.981775 0.226515
v 0.000000 1.651741 0.498888
v -0.000000 -0.057298 0.146342
v 0.000000 -0.060628 0.008087
v -0.000000 2.985039 0.008135
v -0.752760 -0.194876 0.495406
v -1.246456 -0.469922 0.498888
v -0.500300 0.900713 0.498888
v -0.725515 0.900713 0.498888
v -0.518392 1.788244 0.498888
v -1.521098 1.710713 0.498888
v -0.631969 1.916827 0.226515
v -1.953221 1.808094 0.226515
v -0.845766 -0.503281 0.220083
v -1.515302 -0.813964 0.226515
v -1.007044 0.808185 0.226515
v -1.515302 -0.813964 0.008135
v -0.845766 -0.503281 0.001703
v -0.631969 1.916827 0.008135
v -1.953221 1.808094 0.008135
v -1.007044 0.808185 0.008135
v 0.454291 1.004845 0.027922
v -0.048505 1.081832 -0.033366
v -0.469342 0.979904 0.030662
vt 0.840500 0.894846
vt 0.845935 0.890880
vt 0.845935 0.909581
vt 0.840500 0.910647
vt 0.850292 0.890880
vt 0.850292 0.909581
vt 0.845935 0.921108
vt 0.840500 0.919985
vt 0.850292 0.921108
vt 0.799884 0.906884
vt 0.794792 0.914595
vt 0.780628 0.914779
vt 0.782614 0.907108
vt 0.782534 0.900979
vt 0.799857 0.900754
vt 0.840000 0.894846
vt 0.840000 0.910647
vt 0.834566 0.909581
vt 0.834566 0.890880
vt 0.840000 0.919985
vt 0.834566 0.921108
vt 0.830209 0.909581
vt 0.830209 0.890880
vt 0.830209 0.921108
vt 0.800092 0.922875
vt 0.782822 0.923100
vt 0.780638 0.915483
vt 0.794801 0.915299
vt 0.782902 0.929229
vt 0.800224 0.929003
vt 0.819918 0.916354
vt 0.819918 0.904794
vt 0.825352 0.899813
vt 0.825352 0.915045
vt 0.829709 0.899813
vt 0.829709 0.915045
vt 0.855149 0.898599
vt 0.855277 0.890880
vt 0.860711 0.893979
vt 0.860641 0.899776
vt 0.850792 0.898599
vt 0.850920 0.890880
vt 0.860736 0.908362
vt 0.855277 0.908306
vt 0.853678 0.908349
vt 0.850919 0.908349
vt 0.860642 0.917027
vt 0.855149 0.918099
vt 0.850792 0.918099
vt 0.860711 0.922718
vt 0.855277 0.925818
vt 0.850920 0.925818
vt 0.780440 0.900303
vt 0.782183 0.892635
vt 0.803609 0.892356
vt 0.796700 0.900091
vt 0.782103 0.886506
vt 0.803529 0.886227
vt 0.843510 0.967347
vt 0.847624 0.967391
vt 0.861167 0.981179
vt 0.844098 0.982499
vt 0.847932 0.948740
vt 0.856492 0.944058
vt 0.835273 0.997367
vt 0.835273 0.980175
vt 0.835349 0.967433
vt 0.835254 0.955171
vt 0.826449 0.982499
vt 0.826757 0.967391
vt 0.822459 0.948740
vt 0.809380 0.981179
vt 0.822923 0.967391
vt 0.814055 0.944058
vt 0.827097 0.982096
vt 0.809459 0.980414
vt 0.822276 0.967215
vt 0.829629 0.969939
vt 0.815764 0.945450
vt 0.824658 0.949717
vt 0.836335 0.971055
vt 0.835357 0.996480
vt 0.835884 0.955779
vt 0.843987 0.982314
vt 0.841976 0.969765
vt 0.847263 0.950010
vt 0.849191 0.967563
vt 0.861663 0.981089
vt 0.856264 0.945973
vn -0.000416 -0.000753 1.000000
vn -0.001132 -0.001116 0.999999
vn 0.000898 0.000209 1.000000
vn -0.000617 0.000083 1.000000
vn 0.466633 0.711269 0.525689
vn 0.071644 0.893875 0.442556
vn 0.080482 0.985745 0.147750
vn 0.480188 0.814189 0.326369
vn -0.417645 -0.828463 0.373125
vn -0.417894 -0.873364 0.250200
vn -0.360549 -0.711374 0.603284
vn -0.357314 -0.698887 0.619583
vn 0.131694 0.175179 -0.975689
vn 0.385235 0.130332 -0.913568
vn 0.220129 -0.037416 -0.974753
vn -0.011174 -0.003780 -0.999931
vn 0.712816 -0.134320 0.688368
vn 0.868101 -0.125605 0.480233
vn 0.685694 -0.652826 0.321935
vn 0.525589 -0.505799 0.684050
vn 0.004060 -0.740039 0.672551
vn -0.006810 -0.880748 0.473536
vn -0.000554 -0.000598 1.000000
vn -0.002404 -0.002539 0.999994
vn -0.000444 -0.000373 1.000000
vn -0.004475 -0.003299 0.999985
vn 0.776597 0.267066 0.570590
vn 0.928077 0.299969 0.220662
vn -0.092317 -0.190038 -0.977427
vn 0.533183 -0.063050 -0.843647
vn -0.000000 -0.999971 0.007623
vn -0.000168 -0.172634 -0.984986
vn 0.001702 0.442423 -0.896805
vn 0.838234 0.496973 0.224457
vn -0.000362 -0.000195 1.000000
vn -0.000362 -0.000195 1.000000
vn 0.737514 0.437694 0.514293
vn 0.000318 -0.000700 1.000000
vn 0.000419 -0.000279 1.000000
vn 0.000000 0.000000 1.000000
vn 0.002290 -0.001247 0.999997
vn -0.466633 0.711269 0.525689
vn -0.480188 0.814189 0.326369
vn -0.080482 0.985745 0.147749
vn -0.071644 0.893875 0.442555
vn 0.417265 -0.827510 0.375656
vn 0.353512 -0.694816 0.626307
vn 0.362119 -0.708907 0.605245
vn 0.418763 -0.872878 0.250444
vn -0.219945 -0.037947 -0.974774
vn -0.385256 0.130340 -0.913559
vn -0.139858 0.185144 -0.972708
vn 0.012768 -0.004320 -0.999909
vn -0.712816 -0.134320 0.688369
vn -0.525589 -0.505798 0.684050
vn -0.685694 -0.652826 0.321935
vn -0.868101 -0.125605 0.480233
vn 0.003006 -0.002245 0.999993
vn 0.006116 -0.003330 0.999976
vn -0.776597 0.267066 0.570590
vn -0.928077 0.299969 0.220662
vn 0.095584 -0.194809 -0.976173
vn -0.537234 -0.063579 -0.841034
vn -0.838234 0.496973 0.224457
vn -0.737514 0.437694 0.514293
vn -0.008457 0.005945 -0.999947
vn -0.001051 0.001030 -0.999999
vn 0.041094 0.001079 -0.999155
vn -0.003339 0.003583 -0.999988
vn 0.057066 0.003116 -0.998366
vn -0.065185 0.004047 -0.997865
vn -0.045882 0.000977 -0.998946
vn 0.010838 0.006237 -0.999922
s 1
g pCube1
usemtl lambert2SG
f 3/59/1 4/60/2 6/61/3 5/62/4
s 2
f 5/31/5 6/32/6 8/33/7 7/34/8
f 9/37/9 10/38/10 2/39/11 1/40/12
f 17/75/13 18/76/14 19/77/15 42/78/16
f 4/4/17 11/3/18 8/7/19 6/8/20
f 12/43/21 14/44/22 9/37/9 1/40/12
s 1
f 12/68/23 1/63/24 3/59/1 13/67/25
f 1/63/24 2/64/26 4/60/2 3/59/1
s 2
f 2/1/27 10/2/28 11/3/18 4/4/17
f 16/41/29 15/42/30 10/38/10 9/37/9
f 14/44/22 23/45/31 24/46/32 16/41/29 9/37/9
f 17/14/13 25/15/33 21/10/34 7/13/8
f 7/34/8 8/33/7 18/35/14 17/36/13
f 11/3/18 19/6/15 18/9/14 8/7/19
f 10/2/28 15/5/30 19/6/15 11/3/18
s 1
f 20/65/35 22/66/36 13/67/25 3/59/1 5/62/4
s 2
f 21/10/34 20/11/37 5/12/5 7/13/8
s 1
f 28/70/38 30/69/39 31/72/40 29/73/41
s 2
f 30/53/42 32/54/43 33/55/44 31/56/45
f 34/48/46 26/47/47 27/50/48 35/51/49
f 41/87/50 40/88/51 39/84/52 44/85/53
f 29/17/54 31/20/55 33/21/56 36/18/57
f 12/43/21 26/47/47 34/48/46 14/44/22
s 1
f 12/68/23 13/67/25 28/70/38 26/71/58
f 26/71/58 28/70/38 29/73/41 27/74/59
s 2
f 27/16/60 29/17/54 36/18/57 35/19/61
f 38/49/62 34/48/46 35/51/49 37/52/63
f 14/44/22 34/48/46 38/49/62 24/46/32 23/45/31
f 39/29/52 32/26/43 21/25/64 25/30/33
f 32/54/43 39/57/52 40/58/51 33/55/44
f 36/18/57 33/21/56 40/24/51 41/22/50
f 35/19/61 36/18/57 41/22/50 37/23/63
s 1
f 20/65/35 30/69/39 28/70/38 13/67/25 22/66/36
s 2
f 21/25/64 32/26/43 30/27/42 20/28/65
f 19/77/15 15/79/30 16/80/29 42/78/66
f 16/80/29 24/83/32 43/81/67 42/78/68
f 43/81/69 25/82/33 17/75/13 42/78/70
f 39/84/52 25/82/33 43/81/69 44/85/71
f 43/81/67 24/83/32 38/86/62 44/85/72
f 38/86/62 37/89/63 41/87/50 44/85/73
